HIERARCHY
ROOT Hips
{
	OFFSET 49.687801 -10.913917 100.652000
	CHANNELS 6 Xposition Yposition Zposition Xrotation Yrotation Zrotation
	JOINT spine
	{
		OFFSET 0.000000 -0.507026 8.817047
		CHANNELS 3 Xrotation Yrotation Zrotation
		JOINT spine1
		{
			OFFSET 0.000000 -0.000002 10.776604
			CHANNELS 3 Xrotation Yrotation Zrotation
			JOINT spine2
			{
				OFFSET 0.000000 -0.000001 10.325897
				CHANNELS 3 Xrotation Yrotation Zrotation
				JOINT Neck
				{
					OFFSET 0.000000 -1.263955 26.511002
					CHANNELS 3 Xrotation Yrotation Zrotation
					JOINT Head
					{
						OFFSET 0.000000 -0.000001 8.009659
						CHANNELS 3 Xrotation Yrotation Zrotation
						End Site
						{
							OFFSET 0.000000 6.393857 19.387894
						}
					}
				}
				JOINT RightShoulder
				{
					OFFSET -4.347950 0.605420 11.151199
					CHANNELS 3 Xrotation Yrotation Zrotation
					JOINT RightArm
					{
						OFFSET 0.000000 -0.000003 14.625793
						CHANNELS 3 Xrotation Yrotation Zrotation
						JOINT RightArmRoll
						{
							OFFSET 0.000000 -0.000001 7.383392
							CHANNELS 3 Xrotation Yrotation Zrotation
							JOINT RightForeArm
							{
								OFFSET 0.000000 -0.000004 21.505203
								CHANNELS 3 Xrotation Yrotation Zrotation
								JOINT RightForeArmRoll
								{
									OFFSET 0.000000 -0.000001 8.285324
									CHANNELS 3 Xrotation Yrotation Zrotation
									JOINT RightHand
									{
										OFFSET 0.000000 -0.000003 16.626801
										CHANNELS 3 Xrotation Yrotation Zrotation
										End Site
										{
											OFFSET 0.000000 0.000000 0.100006
										}
									}
								}
							}
						}
					}
				}
				JOINT LeftShoulder
				{
					OFFSET 4.347950 0.605420 11.151199
					CHANNELS 3 Xrotation Yrotation Zrotation
					JOINT LeftArm
					{
						OFFSET 0.000000 -0.000003 14.625793
						CHANNELS 3 Xrotation Yrotation Zrotation
						JOINT LeftArmRoll
						{
							OFFSET 0.000000 -0.000001 7.383392
							CHANNELS 3 Xrotation Yrotation Zrotation
							JOINT LeftForeArm
							{
								OFFSET 0.000000 -0.000004 21.505203
								CHANNELS 3 Xrotation Yrotation Zrotation
								JOINT LeftForeArmRoll
								{
									OFFSET 0.000000 -0.000001 8.285324
									CHANNELS 3 Xrotation Yrotation Zrotation
									JOINT LeftHand
									{
										OFFSET 0.000000 -0.000003 16.626801
										CHANNELS 3 Xrotation Yrotation Zrotation
										End Site
										{
											OFFSET 0.000000 0.000000 0.100006
										}
									}
								}
							}
						}
					}
				}
			}
		}
	}
	JOINT RightUpLeg
	{
		OFFSET -7.815102 1.202170 -1.433090
		CHANNELS 3 Xrotation Yrotation Zrotation
		JOINT RightUpLegRoll
		{
			OFFSET 0.000000 -0.000003 19.495903
			CHANNELS 3 Xrotation Yrotation Zrotation
			JOINT RightLeg
			{
				OFFSET 0.000000 0.000004 -24.142700
				CHANNELS 3 Xrotation Yrotation Zrotation
				JOINT RightLegRoll
				{
					OFFSET 0.000000 -0.000004 24.221703
					CHANNELS 3 Xrotation Yrotation Zrotation
					JOINT RightFoot
					{
						OFFSET 0.000000 -0.000004 20.160500
						CHANNELS 3 Xrotation Yrotation Zrotation
						JOINT RightToeBase
						{
							OFFSET 0.000000 -0.000003 16.853195
							CHANNELS 3 Xrotation Yrotation Zrotation
							End Site
							{
								OFFSET 0.007145 0.940779 8.161865
							}
						}
					}
				}
			}
		}
	}
	JOINT LeftUpLeg
	{
		OFFSET 7.815102 1.202170 -1.433090
		CHANNELS 3 Xrotation Yrotation Zrotation
		JOINT LeftUpLegRoll
		{
			OFFSET 0.000000 -0.000003 19.496002
			CHANNELS 3 Xrotation Yrotation Zrotation
			JOINT LeftLeg
			{
				OFFSET 0.000000 -0.000004 24.142601
				CHANNELS 3 Xrotation Yrotation Zrotation
				JOINT LeftLegRoll
				{
					OFFSET 0.000000 -0.000005 24.445602
					CHANNELS 3 Xrotation Yrotation Zrotation
					JOINT LeftFoot
					{
						OFFSET 0.000000 -0.000003 19.936600
						CHANNELS 3 Xrotation Yrotation Zrotation
						JOINT LeftToeBase
						{
							OFFSET 0.000000 -0.000003 16.853195
							CHANNELS 3 Xrotation Yrotation Zrotation
							End Site
							{
								OFFSET -0.032013 0.940779 8.161865
							}
						}
					}
				}
			}
		}
	}
}
MOTION
Frames: 8
Frame Time: 0.041667
49.950401 -12.377918 100.558998 -0.560722 0.887210 0.927435 -3.071204 0.221468 -0.094581 -2.139928 0.454584 -0.171598 -0.494834 0.450782 -0.177023 21.952739 0.101108 1.539996 3.518081 3.470582 1.074983 -13.660908 -10.543615 -13.597622 -133.940201 -180.704198 -78.254679 0.000002 0.000001 0.000000 37.920626 6.712232 0.457621 0.000002 0.000013 -3.007671 -5.000206 -7.998750 0.000155 -11.707270 26.306334 11.847730 -142.955654 200.933961 102.802174 0.000002 -0.000002 -0.000000 29.556831 -2.794307 1.676866 0.000000 -0.000003 3.011519 -5.000197 7.998712 -0.000149 0.365034 -178.744029 -0.972582 -179.999991 0.000005 -1.070986 174.294885 -0.883604 -0.405259 -0.000002 0.000001 0.064083 69.212568 6.884818 2.135097 25.748104 -7.355618 0.442920 -0.632571 176.184238 1.529599 -0.000005 -0.000005 -1.099640 -8.561492 2.542368 0.504086 -0.000005 -0.000001 -0.152002 70.883662 -6.857658 -2.085281 25.828828 7.354375 -0.561319 
49.945599 -12.384318 100.560989 -0.569073 0.885053 0.899521 -3.067793 0.221134 -0.096266 -2.133186 0.453747 -0.175159 -0.488091 0.450004 -0.180578 21.891839 0.100434 1.531012 3.583077 3.529933 1.055844 -13.721925 -10.494805 -13.694631 -133.841832 -180.964114 -78.204751 0.000001 -0.000002 0.000001 38.038580 6.684320 0.469655 -0.000000 0.000014 -3.007672 -5.000209 -7.998753 0.000155 -11.721990 26.222578 11.862553 -143.026115 201.054364 102.728948 0.000002 -0.000003 -0.000000 29.354309 -2.859136 1.688957 -0.000001 -0.000004 3.011519 -5.000198 7.998712 -0.000149 0.376194 -178.740026 -0.969361 -179.999991 0.000005 -1.070986 174.295745 -0.884598 -0.405345 -0.000002 0.000001 0.064168 69.216768 6.884712 2.135117 25.747298 -7.355624 0.441476 -0.610471 176.188199 1.528365 -0.000005 -0.000005 -1.099900 -8.559379 2.543776 0.504158 -0.000004 -0.000001 -0.152044 70.890656 -6.857571 -2.085335 25.830245 7.354370 -0.563399 
49.948399 -12.390615 100.564995 -0.577533 0.882745 0.871092 -3.064204 0.220771 -0.097964 -2.126027 0.452794 -0.178879 -0.480936 0.449128 -0.184291 21.825636 0.100344 1.522093 3.653849 3.590505 1.036328 -13.787352 -10.446880 -13.799297 -133.739093 -181.230040 -78.150089 -0.000002 0.000002 0.000000 38.153047 6.658117 0.481314 0.000001 0.000013 -3.007670 -5.000208 -7.998750 0.000155 -11.740241 26.133900 11.882031 -143.097272 201.167745 102.647068 0.000002 -0.000002 -0.000000 29.125470 -2.931208 1.701800 -0.000000 -0.000002 3.011519 -5.000198 7.998711 -0.000148 0.387425 -178.737021 -0.965892 -179.999991 0.000005 -1.070986 174.296701 -0.884599 -0.405330 -0.000002 0.000001 0.064234 69.220948 6.884571 2.135232 25.746690 -7.355614 0.440057 -0.587941 176.193199 1.527306 -0.000005 -0.000004 -1.100160 -8.556834 2.545197 0.504231 -0.000003 -0.000001 -0.152085 70.897541 -6.857448 -2.085391 25.831564 7.354370 -0.565486 
49.948799 -12.404619 100.563004 -0.585999 0.880312 0.842176 -3.060474 0.220372 -0.099670 -2.118567 0.451713 -0.182730 -0.473474 0.448139 -0.188133 21.754740 0.101206 1.513263 3.729483 3.651651 1.016594 -13.855940 -10.399510 -13.909492 -133.633894 -181.499956 -78.091670 0.000000 -0.000000 -0.000000 38.263703 6.633455 0.492601 0.000000 0.000012 -3.007671 -5.000205 -7.998752 0.000154 -11.762063 26.040786 11.906239 -143.168251 201.274774 102.556766 0.000001 -0.000001 -0.000001 28.876684 -3.009711 1.715043 -0.000000 -0.000003 3.011519 -5.000200 7.998708 -0.000149 0.398618 -178.733032 -0.962205 -179.999991 0.000005 -1.070986 174.297753 -0.885593 -0.405413 -0.000002 0.000002 0.064282 69.224937 6.884492 2.135169 25.745983 -7.355621 0.438639 -0.565158 176.197174 1.526414 -0.000005 -0.000004 -1.100410 -8.553942 2.546631 0.504303 -0.000005 -0.000001 -0.152126 70.904112 -6.857361 -2.085370 25.832974 7.354375 -0.567610 
49.941502 -12.410017 100.564003 -0.594358 0.877781 0.812799 -3.056674 0.219925 -0.101379 -2.110906 0.450497 -0.186684 -0.465812 0.447024 -0.192078 21.679639 0.103392 1.504587 3.809018 3.712703 0.996831 -13.926667 -10.352351 -14.023234 -133.527753 -181.771879 -78.031407 0.000000 0.000001 0.000000 38.370538 6.610129 0.503428 0.000003 0.000015 -3.007668 -5.000207 -7.998753 0.000155 -11.787290 25.943852 11.935199 -143.238342 201.376134 102.458712 0.000002 0.000000 0.000000 28.614552 -3.093827 1.728394 -0.000001 -0.000002 3.011520 -5.000199 7.998709 -0.000148 0.409659 -178.728046 -0.958343 -179.999991 0.000005 -1.070986 174.298914 -0.886601 -0.405496 -0.000002 0.000001 0.064319 69.228899 6.884341 2.135294 25.745379 -7.355622 0.437224 -0.542284 176.202160 1.525640 -0.000005 -0.000004 -1.100650 -8.550786 2.548106 0.504376 -0.000004 -0.000001 -0.152166 70.910484 -6.857299 -2.085366 25.834388 7.354368 -0.569770 
49.940601 -12.420414 100.563004 -0.602499 0.875176 0.782991 -3.052832 0.219420 -0.103083 -2.103145 0.449137 -0.190712 -0.458056 0.445773 -0.196096 21.600943 0.107269 1.496097 3.891515 3.773014 0.977231 -13.998293 -10.305062 -14.138799 -133.422391 -182.043789 -77.971083 -0.000000 0.000000 -0.000000 38.473431 6.587928 0.513794 0.000001 0.000015 -3.007670 -5.000212 -7.998750 0.000153 -11.816196 25.843663 11.969129 -143.306753 201.472521 102.353130 0.000002 0.000001 -0.000001 28.345572 -3.182733 1.741586 0.000000 -0.000002 3.011519 -5.000200 7.998712 -0.000148 0.420433 -178.724044 -0.954363 -179.999991 0.000005 -1.070986 174.300198 -0.888588 -0.405674 -0.000002 0.000001 0.064347 69.232573 6.884277 2.135254 25.744865 -7.355616 0.435822 -0.519499 176.207160 1.524976 -0.000005 -0.000004 -1.100880 -8.547454 2.549612 0.504447 -0.000004 -0.000001 -0.152206 70.916645 -6.857239 -2.085479 25.835897 7.354366 -0.571998 
49.944302 -12.432018 100.567009 -0.610305 0.872524 0.752778 -3.049004 0.218848 -0.104776 -2.095404 0.447625 -0.194787 -0.450309 0.444373 -0.200157 21.519247 0.113206 1.487843 3.976041 3.831942 0.957996 -14.069587 -10.257509 -14.254018 -133.319268 -182.313636 -77.911360 -0.000001 -0.000001 -0.000000 38.571953 6.566687 0.523689 0.000002 0.000012 -3.007670 -5.000208 -7.998749 0.000155 -11.848480 25.740649 12.007938 -143.372788 201.564551 102.240398 0.000001 0.000002 0.000000 28.076124 -3.275571 1.754396 -0.000003 -0.000002 3.011519 -5.000198 7.998711 -0.000148 0.430824 -178.719030 -0.950292 -179.999991 0.000006 -1.070986 174.301606 -0.889582 -0.405751 -0.000001 0.000001 0.064370 69.236227 6.884109 2.135296 25.744265 -7.355619 0.434397 -0.496973 176.212132 1.524402 -0.000005 -0.000004 -1.101100 -8.544022 2.551187 0.504520 -0.000003 -0.000001 -0.152245 70.922792 -6.857144 -2.085485 25.837409 7.354373 -0.574269 
49.939800 -12.435019 100.565994 -0.617677 0.869851 0.722191 -3.045241 0.218198 -0.106452 -2.087764 0.445952 -0.198881 -0.442678 0.442810 -0.204237 21.435152 0.121571 1.479891 4.061656 3.888838 0.939305 -14.139617 -10.209243 -14.367108 -133.220244 -182.579371 -77.854792 -0.000000 -0.000001 0.000000 38.666186 6.546190 0.533037 0.000003 0.000013 -3.007670 -5.000210 -7.998750 0.000154 -11.884328 25.635578 12.051835 -143.435666 201.652934 102.120945 0.000002 -0.000001 -0.000001 27.812804 -3.371480 1.766664 -0.000005 -0.000002 3.011519 -5.000196 7.998715 -0.000149 0.440726 -178.715042 -0.946190 -179.999991 0.000005 -1.070986 174.303176 -0.891583 -0.405926 -0.000002 0.000001 0.064393 69.239574 6.884030 2.135374 25.743659 -7.355619 0.432953 -0.474866 176.218143 1.523882 -0.000005 -0.000004 -1.101320 -8.540579 2.552822 0.504591 -0.000004 -0.000001 -0.152283 70.928748 -6.857114 -2.085413 25.838928 7.354368 -0.576596 
